<svg xmlns="http://www.w3.org/2000/svg" width="17.09" height="16.344" viewBox="0 0 17.09 16.344">
  <metadata><?xpacket begin="﻿" id="W5M0MpCehiHzreSzNTczkc9d"?>
<x:xmpmeta xmlns:x="adobe:ns:meta/" x:xmptk="Adobe XMP Core 5.6-c138 79.159824, 2016/09/14-01:09:01        ">
   <rdf:RDF xmlns:rdf="http://www.w3.org/1999/02/22-rdf-syntax-ns#">
      <rdf:Description rdf:about=""/>
   </rdf:RDF>
</x:xmpmeta>
                                                                                                    
                                                                                                    
                                                                                                    
                                                                                                    
                                                                                                    
                                                                                                    
                                                                                                    
                                                                                                    
                                                                                                    
                                                                                                    
                                                                                                    
                                                                                                    
                                                                                                    
                                                                                                    
                                                                                                    
                                                                                                    
                                                                                                    
                                                                                                    
                                                                                                    
                                                                                                    
                           
<?xpacket end="w"?></metadata>
<defs>
    <style>
      .cls-1 {
        fill: #1f3c6d;
        fill-rule: evenodd;
      }
    </style>
  </defs>
  <path id="Icone" class="cls-1" d="M1285,477.387v1.858a0.25,0.25,0,0,1-.2.249h-16.69a0.25,0.25,0,0,1-.2-0.249v-1.858a1.329,1.329,0,0,1,.75-1.441c0.48-.272,3.69-2.118,5.2-2.766v-2.8a1.888,1.888,0,0,1-.75-1.659v-2.217a3.345,3.345,0,0,1,6.69,0v2.217a1.9,1.9,0,0,1-.74,1.651v2.806a58.327,58.327,0,0,1,5.2,2.766A1.335,1.335,0,0,1,1285,477.387Z" transform="translate(-1267.91 -463.156)"/>
</svg>
