<svg xmlns="http://www.w3.org/2000/svg" width="8.97" height="12.562" viewBox="0 0 8.97 12.562">
  <metadata><?xpacket begin="﻿" id="W5M0MpCehiHzreSzNTczkc9d"?>
<x:xmpmeta xmlns:x="adobe:ns:meta/" x:xmptk="Adobe XMP Core 5.6-c138 79.159824, 2016/09/14-01:09:01        ">
   <rdf:RDF xmlns:rdf="http://www.w3.org/1999/02/22-rdf-syntax-ns#">
      <rdf:Description rdf:about=""/>
   </rdf:RDF>
</x:xmpmeta>
                                                                                                    
                                                                                                    
                                                                                                    
                                                                                                    
                                                                                                    
                                                                                                    
                                                                                                    
                                                                                                    
                                                                                                    
                                                                                                    
                                                                                                    
                                                                                                    
                                                                                                    
                                                                                                    
                                                                                                    
                                                                                                    
                                                                                                    
                                                                                                    
                                                                                                    
                                                                                                    
                           
<?xpacket end="w"?></metadata>
<defs>
    <style>
      .cls-1 {
        fill: #fff;
        fill-rule: evenodd;
      }
    </style>
  </defs>
  <path id="Icone" class="cls-1" d="M1397.39,674.928h-1.8a0.9,0.9,0,0,0-.9.9v0.9h0.9v-0.9h1.8v0.9h0.9v-0.9A0.9,0.9,0,0,0,1397.39,674.928Zm3.37,1.8h-8.54a0.224,0.224,0,0,0-.22.225V677.4a0.224,0.224,0,0,0,.22.225h8.54a0.224,0.224,0,0,0,.22-0.225v-0.448A0.224,0.224,0,0,0,1400.76,676.724Zm-0.55,1.347h-7.54a0.189,0.189,0,0,0-.22.224v9.058a0.231,0.231,0,0,0,.22.147h7.54a0.268,0.268,0,0,0,.32-0.225v-9.019C1400.53,678.111,1400.39,678.071,1400.21,678.071Zm-5.52,7.857a0.223,0.223,0,0,1-.22.225h-0.45a0.223,0.223,0,0,1-.22-0.225v-6.286a0.223,0.223,0,0,1,.22-0.224h0.45a0.223,0.223,0,0,1,.22.224v6.286Zm2.25,0a0.226,0.226,0,0,1-.23.225h-0.44a0.226,0.226,0,0,1-.23-0.225v-6.286a0.226,0.226,0,0,1,.23-0.224h0.44a0.226,0.226,0,0,1,.23.224v6.286Zm2.24,0a0.223,0.223,0,0,1-.22.225h-0.45a0.223,0.223,0,0,1-.22-0.225v-6.286a0.223,0.223,0,0,1,.22-0.224h0.45a0.223,0.223,0,0,1,.22.224v6.286Z" transform="translate(-1392 -674.938)"/>
</svg>
