<svg xmlns="http://www.w3.org/2000/svg" width="13.87" height="17.156" viewBox="0 0 13.87 17.156">
  <metadata><?xpacket begin="﻿" id="W5M0MpCehiHzreSzNTczkc9d"?>
<x:xmpmeta xmlns:x="adobe:ns:meta/" x:xmptk="Adobe XMP Core 5.6-c138 79.159824, 2016/09/14-01:09:01        ">
   <rdf:RDF xmlns:rdf="http://www.w3.org/1999/02/22-rdf-syntax-ns#">
      <rdf:Description rdf:about=""/>
   </rdf:RDF>
</x:xmpmeta>
                                                                                                    
                                                                                                    
                                                                                                    
                                                                                                    
                                                                                                    
                                                                                                    
                                                                                                    
                                                                                                    
                                                                                                    
                                                                                                    
                                                                                                    
                                                                                                    
                                                                                                    
                                                                                                    
                                                                                                    
                                                                                                    
                                                                                                    
                                                                                                    
                                                                                                    
                                                                                                    
                           
<?xpacket end="w"?></metadata>
<defs>
    <style>
      .cls-1 {
        fill: #1f3c6e;
        fill-rule: evenodd;
      }
    </style>
  </defs>
  <path id="Icone" class="cls-1" d="M1282.55,553.094h-0.89v-3.3a4.155,4.155,0,0,0-3.92-3.961h-3.38a4.155,4.155,0,0,0-3.92,3.961v3.3h-0.89a0.408,0.408,0,0,0-.43.387v9.131a0.409,0.409,0,0,0,.43.388h13a0.409,0.409,0,0,0,.43-0.388v-9.131A0.408,0.408,0,0,0,1282.55,553.094Zm-9.47-3.3a1.138,1.138,0,0,1,1.32-1.319h3.3a1.138,1.138,0,0,1,1.32,1.319v3.3h-5.94v-3.3Zm3.63,8.211v1.7a0.332,0.332,0,0,1-.33.33h-0.66a0.332,0.332,0,0,1-.33-0.33V558A1.32,1.32,0,1,1,1276.71,558Z" transform="translate(-1269.13 -545.844)"/>
</svg>
